<?xml version="1.0" encoding="UTF-8" standalone="no"?>
<svg
   width="20"
   height="20"
   viewBox="0 0 20 20"
   fill="none"
   version="1.1"
   id="svg2766"
   sodipodi:docname="comp-icn.svg"
   inkscape:version="1.2.2 (732a01da63, 2022-12-09, custom)"
   xmlns:inkscape="http://www.inkscape.org/namespaces/inkscape"
   xmlns:sodipodi="http://sodipodi.sourceforge.net/DTD/sodipodi-0.dtd"
   xmlns:xlink="http://www.w3.org/1999/xlink"
   xmlns="http://www.w3.org/2000/svg"
   xmlns:svg="http://www.w3.org/2000/svg">
  <defs
     id="defs2770">
    <linearGradient
       inkscape:collect="always"
       xlink:href="#linearGradient6727"
       id="linearGradient43205"
       gradientUnits="userSpaceOnUse"
       gradientTransform="matrix(0.3076545,0,0,0.3076545,24.283784,26.931518)"
       x1="-66.464592"
       y1="-47.879383"
       x2="-23.863529"
       y2="-91.985565" />
    <linearGradient
       inkscape:collect="always"
       id="linearGradient6727">
      <stop
         style="stop-color:#b87333;stop-opacity:1;"
         offset="0"
         id="stop6723" />
      <stop
         style="stop-color:#c18af3;stop-opacity:1;"
         offset="0.9283123"
         id="stop8191" />
    </linearGradient>
  </defs>
  <sodipodi:namedview
     id="namedview2768"
     pagecolor="#ffffff"
     bordercolor="#000000"
     borderopacity="0.25"
     inkscape:showpageshadow="2"
     inkscape:pageopacity="0.0"
     inkscape:pagecheckerboard="0"
     inkscape:deskcolor="#d1d1d1"
     showgrid="false"
     inkscape:zoom="33.37544"
     inkscape:cx="9.7376993"
     inkscape:cy="12.11969"
     inkscape:window-width="1846"
     inkscape:window-height="1016"
     inkscape:window-x="0"
     inkscape:window-y="0"
     inkscape:window-maximized="1"
     inkscape:current-layer="svg2766" />
  <path
     d="M9.92255 19.3607C15.0078 19.3607 19.1302 15.2383 19.1302 10.153C19.1302 5.06774 15.0078 0.945312 9.92255 0.945312C4.83727 0.945312 0.714844 5.06774 0.714844 10.153C0.714844 15.2383 4.83727 19.3607 9.92255 19.3607Z"
     fill="#070A0E"
     id="path2760" />
  <path
     d="M9.91591 18.6717C14.6221 18.6717 18.4373 14.8565 18.4373 10.1503C18.4373 5.44406 14.6221 1.62891 9.91591 1.62891C5.20968 1.62891 1.39453 5.44406 1.39453 10.1503C1.39453 14.8565 5.20968 18.6717 9.91591 18.6717Z"
     fill="#070A0E"
     id="path2762" />
  <path
     id="path3410-7-4"
     style="fill:url(#linearGradient43205);fill-opacity:1;stroke-width:0.0495055"
     d="m 7.5987933,2.7747236 c -0.194902,0.0021 -0.3954755,0.06542 -0.5844222,0.190464 -0.3977649,0.263225 -0.5204239,0.865657 -0.2715528,1.333721 0.2698257,0.507471 0.4299242,1.070128 0.4591515,1.613696 l 0.027821,0.517185 -0.1685242,-0.110819 C 6.2698512,5.7985396 4.8300312,5.2746876 4.1858652,5.2725346 c -0.793289,-0.01452 -0.264311,0.697645 0.03831,1.068537 0.85681,1.139301 1.60764,2.324709 2.250117,3.5525175 L 6.866508,10.643045 6.8671083,9.8355583 6.8673884,9.0280696 6.5398812,8.4741686 c -0.180145,-0.304624 -0.423443,-0.699154 -0.54071,-0.876636 -0.172621,-0.265378 -0.434635,-1.125425 0.341182,-0.838969 0.116163,0.05802 0.3603026,0.214894 0.5424588,0.348657 l 0.3311667,0.243246 V 9.3752957 11.40013 l 0.1519903,0.364074 c 0.8636919,2.069146 1.2657647,4.488765 1.7531253,6.329666 0.090754,0.342818 0.1678489,0.364547 0.2586675,0.423693 l -1.633e-4,-4.01e-4 c 0.4033415,0.219934 0.5096755,0.267413 0.5341855,0.193327 0.0236,0.07615 0.128725,0.02962 0.534668,-0.19174 l 1.64e-4,1.62e-4 c 0.09081,-0.05915 0.167754,-0.08088 0.258508,-0.423697 0.121843,-0.460226 0.238477,-0.956548 0.358195,-1.474586 0.119722,-0.518039 0.242577,-1.05781 0.37727,-1.604631 0.134702,-0.546822 0.281257,-1.100678 0.44802,-1.647244 0.166766,-0.546571 0.353714,-1.085758 0.569646,-1.603043 L 12.61024,11.401635 V 9.3768043 l -0.0103,-1.3701337 0.766306,-0.578383 c -0.07802,0.508113 -0.129951,0.829843 -0.185852,1.137852 a 0.24409039,0.24409039 0 0 0 -0.196345,0.239277 0.24409039,0.24409039 0 0 0 0.244038,0.244038 0.24409039,0.24409039 0 0 0 0.244041,-0.244038 0.24409039,0.24409039 0 0 0 -0.04135,-0.135934 c 0.754138,-0.965547 1.086047,-1.388183 1.368536,-1.744542 0.111476,0.105199 0.203673,0.193511 0.289676,0.277907 a 0.24409039,0.24409039 0 0 0 -0.0065,0.05532 0.24409039,0.24409039 0 0 0 0.244041,0.2442 0.24409039,0.24409039 0 0 0 0.244201,-0.2442 0.24409039,0.24409039 0 0 0 -0.131321,-0.216375 c 0.117025,-0.485771 0.146334,-0.603089 0.210974,-0.881418 a 0.45378045,0.45378045 0 0 0 0.412247,-0.451833 0.45378045,0.45378045 0 0 0 -0.453902,-0.453743 0.45378045,0.45378045 0 0 0 -0.453744,0.453743 0.45378045,0.45378045 0 0 0 0.03814,0.181245 c -0.175332,0.133379 -0.444183,0.335934 -0.760904,0.566616 -0.184266,-0.173802 -0.330906,-0.309948 -0.565348,-0.527987 a 0.20376184,0.20376184 0 0 0 0.02975,-0.105723 0.20376184,0.20376184 0 0 0 -0.203658,-0.20382 0.20376184,0.20376184 0 0 0 -0.20382,0.20382 0.20376184,0.20376184 0 0 0 0.0015,0.02461 l -0.885071,0.307001 0.01672,-0.240389 c 0.02923,-0.543573 0.189316,-1.106071 0.459139,-1.613537 0.248872,-0.468063 0.126212,-1.070502 -0.271547,-1.333727 -0.43189,-0.285809 -0.924607,-0.248031 -1.271246,0.09762 -0.348611,0.347614 -0.398288,0.722738 -0.161364,1.218778 0.182067,0.381195 0.273932,0.621045 0.379018,0.989998 0.0082,0.02862 0.01556,0.06148 0.02226,0.101589 0.0067,0.04011 0.01269,0.08753 0.01813,0.145476 0.0039,0.04422 -1.079352,0.56242 -1.57808,0.838804 A 0.31487239,0.31487239 0 0 0 9.9389471,6.1888006 0.31487239,0.31487239 0 0 0 9.624158,6.5035946 0.31487239,0.31487239 0 0 0 9.8224139,6.7961236 c -0.078871,0.539919 -0.1409446,0.883928 -0.407004,2.349632 A 0.45378045,0.45378045 0 0 0 8.9969373,9.5982249 0.45378045,0.45378045 0 0 0 9.450681,10.051975 0.45378045,0.45378045 0 0 0 9.5921822,10.029105 c 0.2632679,0.324996 0.4093128,0.509397 0.7089128,0.904468 -0.06135,0.370958 -0.14713,0.888345 -0.249789,1.506855 a 0.24409039,0.24409039 0 0 0 -0.02415,-0.0012 0.24409039,0.24409039 0 0 0 -0.2441998,0.244045 0.24409039,0.24409039 0 0 0 0.2441998,0.2442 0.24409039,0.24409039 0 0 0 0.244041,-0.2442 0.24409039,0.24409039 0 0 0 -0.02782,-0.112883 c 0.319935,-0.42666 0.502024,-0.671857 0.640874,-0.862966 0.152841,0.203401 0.314208,0.418346 0.52783,0.702708 -0.16034,0.433593 -0.307613,0.833722 -0.43244,1.167429 -0.171521,0.458537 -0.313741,0.8258 -0.438324,1.110192 -0.124572,0.284389 -0.231502,0.485917 -0.332431,0.612884 -0.100932,0.126974 -0.195945,0.179374 -0.29651,0.165662 -3.2e-4,0.821391 -2.8e-4,1.211224 -3.2e-4,1.580786 -5.4e-5,-0.369662 -1.09e-4,-0.760087 -6e-4,-1.582216 -0.4022537,0.05487 -0.7142509,-0.948782 -1.6812684,-3.546477 l -0.2786949,-0.70223 0.0192,-2.8361374 c 0.016173,-2.384082 0.031612,-2.879431 0.096823,-3.108312 0.1050837,-0.368954 0.1969535,-0.608965 0.3790211,-0.99016 C 8.683458,3.7855146 8.633781,3.4105496 8.2851634,3.0629356 8.090182,2.8685136 7.8489441,2.7715256 7.5983515,2.7746986 Z m 4.0700147,3.115465 c 0.09868,-0.006 0.157659,0.02975 0.154532,0.1291 -0.0034,0.112612 0.02018,0.238115 0.02085,0.387599 0.0027,0.658273 0.06993,0.794041 -0.797628,0.507165 -0.438546,-0.14501 -0.666246,-0.259611 -0.80557,-0.320673 a 0.31487239,0.31487239 0 0 0 0.01318,-0.08967 0.31487239,0.31487239 0 0 0 0,-0.0039 c 0.39845,-0.15807 1.103614,-0.590847 1.414646,-0.609707 z m 1.863462,0.05755 a 0.20376184,0.20376184 0 0 0 0.05183,0.04693 c -0.07171,0.47377 -0.130297,0.86108 -0.178064,1.174742 -0.449371,0.290556 -0.799697,0.473932 -0.802079,0.339433 -0.0068,-0.381229 -0.0039,-0.828476 -0.0021,-0.993335 0.0012,-0.139385 0.70342,-0.4655 0.930698,-0.567738 z m 0.268364,0.048 c 0.215401,0.199732 0.404522,0.374961 0.55613,0.515747 -0.270501,0.196034 -0.557995,0.39871 -0.822584,0.574253 0.0547,-0.348345 0.08934,-0.602291 0.154531,-1.059314 a 0.20376184,0.20376184 0 0 0 0.0045,1.64e-4 0.20376184,0.20376184 0 0 0 0.107477,-0.03087 z m 1.459798,0.0028 a 0.45378045,0.45378045 0 0 0 0.08172,0.07663 c -0.213887,0.269664 -0.400422,0.505232 -0.562486,0.71019 -0.09506,-0.09037 -0.17857,-0.169777 -0.248813,-0.236251 z m 0.174092,0.128459 a 0.45378045,0.45378045 0 0 0 0.146585,0.03419 c -0.11619,0.484729 -0.149896,0.632788 -0.20382,0.858043 a 0.24409039,0.24409039 0 0 0 -0.05059,-0.0051 0.24409039,0.24409039 0 0 0 -0.198885,0.102704 c -0.102571,-0.09771 -0.1943,-0.185127 -0.273776,-0.260733 0.167686,-0.211252 0.345648,-0.434101 0.580457,-0.728947 z m -0.977281,0.47775 c 0.09921,0.09228 0.190203,0.176973 0.267732,0.249762 -0.934403,1.182123 -1.065573,1.358308 -1.382695,1.734847 a 0.24409039,0.24409039 0 0 0 -0.05723,-0.02146 c 0.09818,-0.568281 0.162948,-0.94999 0.2097,-1.236744 z m -4.274944,0.09873 c 0.452055,0.235778 1.663408,0.67973 1.665052,0.869169 0.0021,0.242156 0.004,0.510748 0.006,0.808753 l 0.0045,0.708913 -0.913213,-0.439271 a 0.24409039,0.24409039 0 0 0 0.0028,-0.03515 0.24409039,0.24409039 0 0 0 -0.237208,-0.244045 c -0.240917,-0.668141 -0.322111,-0.897291 -0.575201,-1.621806 a 0.31487239,0.31487239 0 0 0 0.04704,-0.04659 z m -0.164868,0.104929 c 0.129073,0.333056 0.212732,0.584193 0.553907,1.602408 a 0.24409039,0.24409039 0 0 0 -0.111928,0.205092 0.24409039,0.24409039 0 0 0 0.173449,0.233547 C 10.529576,9.5332761 10.491049,9.7843374 10.329835,10.761402 10.17394,10.558198 9.9712821,10.293462 9.7190197,9.9637821 A 0.45378045,0.45378045 0 0 0 9.90471,9.5981198 0.45378045,0.45378045 0 0 0 9.5611468,9.1578896 c 0.1496798,-0.906557 0.2117781,-1.274226 0.3953963,-2.340099 a 0.31487239,0.31487239 0 0 0 0.06089,-0.0094 z m 0.877752,1.958692 c 0.266509,0.133473 0.981585,0.5288442 0.971722,0.9361041 0.01003,0.5464433 0.01257,1.0002533 0.0057,1.5141683 l -0.278707,0.702236 c -0.04321,0.116154 -0.07855,0.212283 -0.119233,0.322108 -0.196421,-0.252916 -0.37378,-0.48128 -0.505734,-0.651519 0.108776,-0.15134 0.213429,-0.299934 0.372344,-0.523857 a 0.16435888,0.16435888 0 0 0 0.07138,0.01623 0.16435888,0.16435888 0 0 0 0.164232,-0.164391 0.16435888,0.16435888 0 0 0 -0.164232,-0.164392 0.16435888,0.16435888 0 0 0 -0.0066,4e-4 C 11.080768,9.5880115 11.041238,9.4702832 10.841046,8.8175866 a 0.24409039,0.24409039 0 0 0 0.05419,-0.05042 z m -0.123687,0.08299 c 0.319411,1.0700788 0.456899,1.5277294 0.564874,1.9226024 a 0.16435888,0.16435888 0 0 0 -0.08808,0.145472 0.16435888,0.16435888 0 0 0 0.03515,0.10159 c -0.139484,0.193424 -0.258159,0.357863 -0.364704,0.505572 -0.18371,-0.237138 -0.334637,-0.432749 -0.509236,-0.660104 0.08259,-0.512029 0.161074,-1.0112579 0.315905,-2.0063894 a 0.24409039,0.24409039 0 0 0 0.04608,-0.0087 z m -0.389991,2.1887444 c 0.113757,0.150492 0.282881,0.375612 0.453429,0.602551 -0.299178,0.414525 -0.476835,0.65904 -0.634989,0.869178 a 0.24409039,0.24409039 0 0 0 -0.05262,-0.04006 c 0.102292,-0.623655 0.175929,-1.072361 0.234184,-1.431654 z" />
</svg>
