<?xml version="1.0" encoding="UTF-8" standalone="no"?>
<svg
   width="64"
   height="64"
   viewBox="0 0 64 64"
   fill="none"
   version="1.1"
   id="svg1526"
   sodipodi:docname="compound-interface.svg"
   inkscape:version="1.2.2 (732a01da63, 2022-12-09, custom)"
   xmlns:inkscape="http://www.inkscape.org/namespaces/inkscape"
   xmlns:sodipodi="http://sodipodi.sourceforge.net/DTD/sodipodi-0.dtd"
   xmlns:xlink="http://www.w3.org/1999/xlink"
   xmlns="http://www.w3.org/2000/svg"
   xmlns:svg="http://www.w3.org/2000/svg">
  <defs
     id="defs1530">
    <linearGradient
       inkscape:collect="always"
       id="linearGradient70365">
      <stop
         style="stop-color:#cd894a;stop-opacity:1;"
         offset="0"
         id="stop70361" />
      <stop
         style="stop-color:#be82b4;stop-opacity:1;"
         offset="1"
         id="stop70363" />
    </linearGradient>
    <linearGradient
       inkscape:collect="always"
       xlink:href="#linearGradient6727"
       id="linearGradient43205"
       gradientUnits="userSpaceOnUse"
       gradientTransform="matrix(0.91556037,0,0,0.91556037,74.757916,83.25702)"
       x1="-66.464592"
       y1="-47.879383"
       x2="-23.863529"
       y2="-91.985565" />
    <linearGradient
       inkscape:collect="always"
       id="linearGradient6727">
      <stop
         style="stop-color:#b87333;stop-opacity:1;"
         offset="0"
         id="stop6723" />
      <stop
         style="stop-color:#c18af3;stop-opacity:1;"
         offset="0.9283123"
         id="stop8191" />
    </linearGradient>
    <linearGradient
       inkscape:collect="always"
       xlink:href="#linearGradient70365"
       id="linearGradient70367"
       x1="0"
       y1="32"
       x2="64"
       y2="32"
       gradientUnits="userSpaceOnUse"
       gradientTransform="translate(-42.632951,11.987958)" />
  </defs>
  <sodipodi:namedview
     id="namedview1528"
     pagecolor="#ffffff"
     bordercolor="#000000"
     borderopacity="0.25"
     inkscape:showpageshadow="2"
     inkscape:pageopacity="0.0"
     inkscape:pagecheckerboard="0"
     inkscape:deskcolor="#d1d1d1"
     showgrid="false"
     inkscape:zoom="7.375"
     inkscape:cx="43.932203"
     inkscape:cy="47.118644"
     inkscape:window-width="1846"
     inkscape:window-height="1016"
     inkscape:window-x="0"
     inkscape:window-y="0"
     inkscape:window-maximized="1"
     inkscape:current-layer="svg1526" />
  <circle
     cx="32"
     cy="32"
     r="32"
     fill="white"
     id="circle1520" />
  <path
     id="path3410-7-4"
     style="fill:url(#linearGradient43205);fill-opacity:1;stroke-width:0.147326"
     d="m 25.104431,11.36793 c -0.580016,0.0062 -1.176908,0.194685 -1.739203,0.566808 -1.183723,0.783341 -1.548749,2.576141 -0.808124,3.969069 0.802985,1.510202 1.279429,3.184634 1.366407,4.802258 l 0.08279,1.53911 -0.501516,-0.329791 c -2.355205,-1.54877 -6.640017,-3.10772 -8.557015,-3.114127 -2.360778,-0.04321 -0.786572,2.076147 0.114009,3.179899 2.549811,3.390487 4.784235,6.918187 6.696205,10.572066 l 1.16721,2.230333 0.0018,-2.40303 7.98e-4,-2.403033 -0.974641,-1.648375 c -0.5361,-0.906541 -1.260139,-2.080638 -1.609119,-2.608813 -0.513708,-0.789748 -1.293446,-3.349194 1.015337,-2.496719 0.345693,0.172665 1.072239,0.639511 1.614323,1.037582 l 0.985533,0.723885 v 6.025762 6.025778 l 0.452312,1.083461 c 2.570293,6.157648 3.766837,13.358282 5.21719,18.836686 0.270066,1.020205 0.499507,1.084869 0.769779,1.260884 l -4.88e-4,-0.0012 c 1.20032,0.65451 1.516763,0.795804 1.589704,0.575329 0.07023,0.226618 0.383077,0.08815 1.591138,-0.570606 l 4.87e-4,4.82e-4 c 0.270246,-0.176026 0.499226,-0.240693 0.769304,-1.260895 0.362597,-1.369603 0.709692,-2.846626 1.065966,-4.388275 0.356285,-1.541651 0.721894,-3.147975 1.122732,-4.77528 0.400864,-1.627308 0.837003,-3.275548 1.333279,-4.902094 0.496285,-1.626561 1.05263,-3.231147 1.69523,-4.770555 l 0.452298,-1.083464 v -6.025769 l -0.03066,-4.077429 2.280478,-1.721231 c -0.232182,1.512112 -0.386726,2.46956 -0.553084,3.386175 a 0.72639757,0.72639757 0 0 0 -0.58431,0.712073 0.72639757,0.72639757 0 0 0 0.726241,0.726242 0.72639757,0.72639757 0 0 0 0.726251,-0.726242 0.72639757,0.72639757 0 0 0 -0.123055,-0.404531 c 2.244267,-2.873407 3.232008,-4.131145 4.072677,-5.191646 0.331745,0.313065 0.606118,0.575876 0.862057,0.827033 a 0.72639757,0.72639757 0 0 0 -0.01934,0.164629 0.72639757,0.72639757 0 0 0 0.726251,0.726724 0.72639757,0.72639757 0 0 0 0.726726,-0.726724 0.72639757,0.72639757 0 0 0 -0.390803,-0.643918 c 0.34822,-1.445621 0.435441,-1.794752 0.627806,-2.623041 a 1.350422,1.350422 0 0 0 1.22682,-1.344627 1.350422,1.350422 0 0 0 -1.350783,-1.35031 1.350422,1.350422 0 0 0 -1.350314,1.35031 1.350422,1.350422 0 0 0 0.113503,0.539374 c -0.521777,0.396927 -1.321861,0.999718 -2.264403,1.686213 -0.548364,-0.517224 -0.984755,-0.922386 -1.682439,-1.571256 a 0.60638235,0.60638235 0 0 0 0.08853,-0.314625 0.60638235,0.60638235 0 0 0 -0.606074,-0.606555 0.60638235,0.60638235 0 0 0 -0.606555,0.606555 0.60638235,0.60638235 0 0 0 0.0045,0.07324 l -2.633915,0.913616 0.04976,-0.715383 c 0.08699,-1.617638 0.563392,-3.291597 1.366369,-4.801784 0.740627,-1.392926 0.375599,-3.185746 -0.808107,-3.969087 -1.285277,-0.850549 -2.751572,-0.738125 -3.783148,0.290511 -1.037444,1.034477 -1.185279,2.150823 -0.480208,3.627006 0.541819,1.134412 0.815204,1.848191 1.127933,2.946172 0.0244,0.08517 0.0463,0.18296 0.06624,0.302322 0.01994,0.119365 0.03776,0.260483 0.05395,0.432927 0.01161,0.131597 -3.212082,1.673726 -4.696265,2.496228 a 0.93704036,0.93704036 0 0 0 -0.832245,-0.506251 0.93704036,0.93704036 0 0 0 -0.936792,0.936807 0.93704036,0.93704036 0 0 0 0.589997,0.870547 c -0.234712,1.606765 -0.419443,2.630514 -1.211218,6.992356 a 1.350422,1.350422 0 0 0 -1.24535,1.346519 1.350422,1.350422 0 0 0 1.350314,1.350332 1.350422,1.350422 0 0 0 0.421098,-0.06806 c 0.783469,0.967168 1.21809,1.515933 2.10968,2.69164 -0.182573,1.103948 -0.437849,2.643658 -0.743356,4.484305 a 0.72639757,0.72639757 0 0 0 -0.07187,-0.0036 0.72639757,0.72639757 0 0 0 -0.726724,0.726263 0.72639757,0.72639757 0 0 0 0.726724,0.726724 0.72639757,0.72639757 0 0 0 0.72625,-0.726724 0.72639757,0.72639757 0 0 0 -0.08279,-0.335933 c 0.952107,-1.269713 1.493992,-1.999404 1.907201,-2.568132 0.454845,0.605308 0.935063,1.244971 1.570789,2.091215 -0.477162,1.290344 -0.915437,2.481103 -1.286915,3.474194 -0.510435,1.364578 -0.933673,2.457529 -1.304424,3.303861 -0.370718,0.846324 -0.688935,1.446059 -0.989293,1.823905 -0.300367,0.377866 -0.58312,0.533805 -0.882395,0.492999 -9.58e-4,2.444408 -7.98e-4,3.604526 -9.58e-4,4.704319 -1.6e-4,-1.100091 -3.24e-4,-2.261971 -0.0018,-4.708574 -1.197083,0.163289 -2.125565,-2.823516 -5.003347,-10.554092 l -0.829379,-2.089792 0.05714,-8.440164 c 0.04812,-7.094877 0.09407,-8.569005 0.28813,-9.25014 0.31272,-1.097984 0.586119,-1.812242 1.127942,-2.946654 0.705062,-1.476177 0.557227,-2.592049 -0.480239,-3.626527 -0.580251,-0.578588 -1.29816,-0.867218 -2.043906,-0.857775 z m 12.112107,9.271426 c 0.293665,-0.01786 0.469183,0.08853 0.459878,0.384194 -0.01012,0.335126 0.06006,0.708615 0.06205,1.15347 0.008,1.958979 0.208107,2.363016 -2.37369,1.509291 C 34.05969,23.25477 33.38207,22.913725 32.96745,22.732009 a 0.93704036,0.93704036 0 0 0 0.03923,-0.266853 0.93704036,0.93704036 0 0 0 0,-0.01161 c 1.185762,-0.470407 3.284285,-1.758324 4.209897,-1.814449 z m 5.545546,0.171266 a 0.60638235,0.60638235 0 0 0 0.154242,0.13966 c -0.213404,1.40991 -0.387755,2.56252 -0.529907,3.495958 -1.3373,0.864677 -2.379848,1.410392 -2.386936,1.010131 -0.02023,-1.134513 -0.01161,-2.465492 -0.0062,-2.956102 0.0036,-0.414801 2.093333,-1.385298 2.769698,-1.689552 z m 0.798634,0.142844 c 0.64102,0.59439 1.203832,1.115861 1.655007,1.534831 -0.804993,0.583385 -1.660557,1.186536 -2.447957,1.708941 0.162783,-1.036653 0.26587,-1.79238 0.459874,-3.152452 a 0.60638235,0.60638235 0 0 0 0.01339,4.88e-4 0.60638235,0.60638235 0 0 0 0.319845,-0.09187 z m 4.344266,0.0083 a 1.350422,1.350422 0 0 0 0.243193,0.228046 c -0.636514,0.802503 -1.19163,1.503538 -1.673922,2.11348 -0.282893,-0.268935 -0.531413,-0.505245 -0.740452,-0.703068 z m 0.518087,0.382286 a 1.350422,1.350422 0 0 0 0.436228,0.101747 c -0.345774,1.442523 -0.446081,1.883137 -0.606555,2.553482 a 0.72639757,0.72639757 0 0 0 -0.150553,-0.01518 0.72639757,0.72639757 0 0 0 -0.59187,0.30564 c -0.305245,-0.290779 -0.578224,-0.550925 -0.814739,-0.775924 0.499022,-0.628673 1.028626,-1.291858 1.727403,-2.1693 z m -2.908327,1.421753 c 0.295244,0.27462 0.566033,0.526661 0.796754,0.743276 -2.780725,3.517923 -3.171078,4.042239 -4.114813,5.162795 a 0.72639757,0.72639757 0 0 0 -0.170313,-0.06386 c 0.292178,-1.691168 0.484923,-2.82711 0.624054,-3.680471 z M 32.792781,23.05962 c 1.345288,0.70166 4.950197,2.022833 4.95509,2.586591 0.0062,0.720642 0.01191,1.519954 0.01786,2.406798 l 0.01339,2.109681 -2.717664,-1.307243 a 0.72639757,0.72639757 0 0 0 0.0083,-0.104604 0.72639757,0.72639757 0 0 0 -0.705916,-0.726263 c -0.71695,-1.988343 -0.958578,-2.670278 -1.711758,-4.826389 a 0.93704036,0.93704036 0 0 0 0.139988,-0.13865 z m -0.490636,0.312262 c 0.384113,0.991154 0.633076,1.738521 1.648392,4.768665 a 0.72639757,0.72639757 0 0 0 -0.333091,0.61034 0.72639757,0.72639757 0 0 0 0.516174,0.695022 c -0.307364,2.035011 -0.422018,2.782153 -0.901781,5.689836 -0.463933,-0.604722 -1.067031,-1.39256 -1.817747,-2.373667 a 1.350422,1.350422 0 0 0 0.552603,-1.088187 1.350422,1.350422 0 0 0 -1.022423,-1.310096 c 0.445439,-2.697857 0.630239,-3.792017 1.176674,-6.963987 a 0.93704036,0.93704036 0 0 0 0.181205,-0.02797 z m 2.612135,5.828944 c 0.793113,0.397206 2.921134,1.573806 2.891783,2.785786 0.02985,1.626179 0.03741,2.976689 0.01696,4.506067 l -0.829414,2.089811 c -0.12859,0.345666 -0.23376,0.631741 -0.35483,0.958573 -0.584537,-0.752663 -1.112346,-1.432259 -1.505032,-1.938879 0.32371,-0.450379 0.635151,-0.892585 1.108072,-1.558966 a 0.48912163,0.48912163 0 0 0 0.212422,0.0483 0.48912163,0.48912163 0 0 0 0.488744,-0.489217 0.48912163,0.48912163 0 0 0 -0.488744,-0.48922 0.48912163,0.48912163 0 0 0 -0.01964,0.0012 C 35.466566,31.643842 35.348928,31.293492 34.753169,29.35111 a 0.72639757,0.72639757 0 0 0 0.161265,-0.150048 z m -0.368085,0.246972 c 0.950547,3.184485 1.359702,4.546425 1.681029,5.721542 a 0.48912163,0.48912163 0 0 0 -0.262121,0.432916 0.48912163,0.48912163 0 0 0 0.104605,0.302325 c -0.415096,0.575618 -0.768265,1.064978 -1.085336,1.50455 -0.54671,-0.705707 -0.995859,-1.287833 -1.515455,-1.964428 0.245783,-1.523766 0.479347,-3.009439 0.940114,-5.970886 a 0.72639757,0.72639757 0 0 0 0.137131,-0.02589 z m -1.160589,6.513564 c 0.338534,0.447855 0.841836,1.117798 1.349376,1.793153 -0.890335,1.233601 -1.419031,1.961262 -1.889687,2.586619 a 0.72639757,0.72639757 0 0 0 -0.156594,-0.119213 c 0.304414,-1.855958 0.523554,-3.191278 0.696917,-4.260512 z" />
  <circle
     cx="-10.63295"
     cy="43.987961"
     r="31.5"
     stroke="#AAB8C1"
     stroke-opacity="0.4"
     id="circle1522"
     style="stroke:url(#linearGradient70367);stroke-opacity:1"
     transform="rotate(-58.589101)" />
</svg>
