<?xml version="1.0" encoding="UTF-8" standalone="no"?>
<svg
   width="29"
   height="37"
   viewBox="0 0 29 37"
   fill="none"
   version="1.1"
   id="svg184"
   sodipodi:docname="compound-mark.svg"
   inkscape:version="1.2.2 (732a01da63, 2022-12-09, custom)"
   xmlns:inkscape="http://www.inkscape.org/namespaces/inkscape"
   xmlns:sodipodi="http://sodipodi.sourceforge.net/DTD/sodipodi-0.dtd"
   xmlns:xlink="http://www.w3.org/1999/xlink"
   xmlns="http://www.w3.org/2000/svg"
   xmlns:svg="http://www.w3.org/2000/svg">
  <defs
     id="defs188">
    <linearGradient
       inkscape:collect="always"
       xlink:href="#linearGradient6727-9"
       id="linearGradient43205"
       gradientUnits="userSpaceOnUse"
       gradientTransform="matrix(0.71063379,0,0,0.71063379,47.687615,55.891667)"
       x1="-66.464592"
       y1="-47.879383"
       x2="-23.863529"
       y2="-91.985565" />
    <linearGradient
       inkscape:collect="always"
       id="linearGradient6727-9">
      <stop
         style="stop-color:#b87333;stop-opacity:1;"
         offset="0"
         id="stop6723-1" />
      <stop
         style="stop-color:#c18af3;stop-opacity:1;"
         offset="0.9283123"
         id="stop8191-2" />
    </linearGradient>
  </defs>
  <sodipodi:namedview
     id="namedview186"
     pagecolor="#ffffff"
     bordercolor="#000000"
     borderopacity="0.25"
     inkscape:showpageshadow="2"
     inkscape:pageopacity="0.0"
     inkscape:pagecheckerboard="0"
     inkscape:deskcolor="#d1d1d1"
     showgrid="false"
     inkscape:zoom="21.540541"
     inkscape:cx="13.138018"
     inkscape:cy="17.014429"
     inkscape:window-width="1846"
     inkscape:window-height="1016"
     inkscape:window-x="0"
     inkscape:window-y="0"
     inkscape:window-maximized="1"
     inkscape:current-layer="svg184" />
  <path
     id="path3410-7-4-7"
     style="fill:url(#linearGradient43205);fill-opacity:1;stroke-width:0.11435"
     d="M 9.147891,0.09324849 C 8.6977012,0.0981921 8.2344109,0.24436332 7.7979707,0.53318875 6.879192,1.1411977 6.5958695,2.532722 7.1707251,3.6138759 7.793982,4.7860521 8.1637829,6.0857068 8.2312978,7.3412605 L 8.2955648,8.535876 7.9063007,8.2799029 C 6.0782558,7.0777863 2.7524984,5.8677714 1.2645713,5.8627995 -0.5677969,5.8292627 0.65405822,7.4742492 1.3530605,8.3309514 3.3321596,10.962564 5.0664543,13.700667 6.5504771,16.536715 l 0.9059568,1.731123 0.00127,-1.865169 6.49e-4,-1.865169 -0.7564965,-1.279425 C 6.2857897,12.554444 5.7238083,11.643139 5.4529382,11.233181 5.0542115,10.620201 4.4489971,8.6336231 6.2410134,9.2952984 6.5093347,9.4293013 7.0732554,9.7916699 7.4940068,10.100638 l 0.7649477,0.561863 v 4.677036 4.677052 l 0.3510704,0.840956 c 1.9949941,4.779403 2.9237231,10.368348 4.0494501,14.620533 0.209626,0.791864 0.387701,0.842053 0.597476,0.978667 l -3.75e-4,-7.76e-4 c 0.931653,0.508014 1.177275,0.617684 1.233888,0.446557 0.05454,0.175879 0.29733,0.06842 1.234995,-0.442891 l 3.77e-4,3.76e-4 c 0.209776,-0.136614 0.387486,-0.18681 0.597119,-0.978672 0.281436,-1.063054 0.55084,-2.209478 0.827373,-3.406066 0.276538,-1.196591 0.560313,-2.443378 0.871433,-3.706446 0.311146,-1.263075 0.649661,-2.542394 1.034858,-3.804881 0.385204,-1.262487 0.81702,-2.507927 1.315794,-3.702776 l 0.351064,-0.840956 V 15.34317 l -0.0238,-3.164792 1.770043,-1.335974 c -0.180207,1.173663 -0.300165,1.916802 -0.429286,2.628259 a 0.56381065,0.56381065 0 0 0 -0.45353,0.552689 0.56381065,0.56381065 0 0 0 0.563694,0.563691 0.56381065,0.56381065 0 0 0 0.563694,-0.563691 0.56381065,0.56381065 0 0 0 -0.0955,-0.313986 c 1.74194,-2.230262 2.5086,-3.206487 3.161101,-4.0296159 0.257497,0.2429932 0.470457,0.4469809 0.669111,0.6419189 a 0.56381065,0.56381065 0 0 0 -0.0151,0.127781 0.56381065,0.56381065 0 0 0 0.563694,0.564066 0.56381065,0.56381065 0 0 0 0.564063,-0.564066 0.56381065,0.56381065 0 0 0 -0.30333,-0.4997943 c 0.270307,-1.1220531 0.338003,-1.393042 0.487313,-2.0359372 a 1.0481619,1.0481619 0 0 0 0.952217,-1.0436624 1.0481619,1.0481619 0 0 0 -1.048445,-1.0480728 1.0481619,1.0481619 0 0 0 -1.048068,1.0480728 1.0481619,1.0481619 0 0 0 0.08809,0.4186475 C 26.284442,7.5967893 25.663443,8.064656 24.93187,8.5975001 24.50624,8.1960424 24.167525,7.8815673 23.625999,7.3779315 a 0.47065804,0.47065804 0 0 0 0.06872,-0.2442044 0.47065804,0.47065804 0 0 0 -0.470418,-0.4707911 0.47065804,0.47065804 0 0 0 -0.470794,0.4707911 0.47065804,0.47065804 0 0 0 0.0033,0.056845 L 20.712409,7.899698 20.751058,7.3444403 C 20.818518,6.0888678 21.188296,4.7895847 21.81154,3.6174204 22.386396,2.5362665 22.103073,1.1447266 21.184314,0.53671779 20.186715,-0.12345391 19.048614,-0.03619286 18.24793,0.76220004 17.442694,1.5651355 17.327952,2.431611 17.875205,3.5773857 c 0.42055,0.8805001 0.632739,1.4345174 0.875474,2.2867428 0.01887,0.066097 0.03593,0.1420197 0.05144,0.2346558 0.01543,0.092648 0.02931,0.2021911 0.0419,0.3360242 0.0091,0.1021475 -2.493133,1.2991017 -3.645114,1.9375039 a 0.72730599,0.72730599 0 0 0 -0.645959,-0.3929357 0.72730599,0.72730599 0 0 0 -0.727118,0.7271244 0.72730599,0.72730599 0 0 0 0.457941,0.675696 c -0.18218,1.2471269 -0.325563,2.0417379 -0.940116,5.4272849 a 1.0481619,1.0481619 0 0 0 -0.966546,1.045135 1.0481619,1.0481619 0 0 0 1.048075,1.048088 1.0481619,1.0481619 0 0 0 0.32684,-0.05282 c 0.608114,0.750689 0.945455,1.176628 1.637486,2.089179 -0.141711,0.856861 -0.339852,2.051941 -0.576977,3.480605 a 0.56381065,0.56381065 0 0 0 -0.05577,-0.0028 0.56381065,0.56381065 0 0 0 -0.564064,0.563706 0.56381065,0.56381065 0 0 0 0.564064,0.564063 0.56381065,0.56381065 0 0 0 0.563701,-0.564063 0.56381065,0.56381065 0 0 0 -0.06426,-0.260744 c 0.739,-0.985516 1.159595,-1.551882 1.480321,-1.993318 0.353036,0.469827 0.725768,0.966315 1.219203,1.62315 -0.370359,1.001531 -0.71054,1.925766 -0.998869,2.696575 -0.396184,1.059153 -0.724692,1.907471 -1.012457,2.564372 -0.287745,0.656895 -0.534736,1.122393 -0.767865,1.415668 -0.233138,0.293286 -0.452603,0.414325 -0.68489,0.382654 -6.49e-4,1.897286 -6.49e-4,2.797736 -6.49e-4,3.651367 -1.3e-4,-0.853863 -2.54e-4,-1.755684 -0.0012,-3.654674 -0.929143,0.126746 -1.649808,-2.191533 -3.883472,-8.191809 l -0.6437386,-1.62204 0.04436,-6.551035 C 10.044173,7.5339468 10.079833,6.3897673 10.230462,5.8610899 10.473184,5.0088646 10.685391,4.4544751 11.105937,3.5739745 11.653196,2.4281999 11.538453,1.5620888 10.733198,0.75915407 10.28282,0.31007095 9.7255984,0.08604424 9.1467674,0.0933749 Z m 9.4011,7.19623971 c 0.22793,-0.013785 0.364171,0.068709 0.356947,0.2981915 -0.0079,0.2601207 0.04663,0.550014 0.0482,0.8952968 0.0065,1.5205055 0.161536,1.8341145 -1.842395,1.1714751 -1.012976,-0.3349557 -1.538925,-0.5996634 -1.860745,-0.740708 a 0.72730599,0.72730599 0 0 0 0.03042,-0.2071197 0.72730599,0.72730599 0 0 0 0,-0.0091 c 0.920355,-0.3651124 2.549174,-1.3647589 3.267614,-1.408322 z m 4.304308,0.1329351 a 0.47065804,0.47065804 0 0 0 0.119717,0.1083928 c -0.165634,1.0943351 -0.300963,1.9889575 -0.411295,2.7134689 -1.037985,0.671137 -1.847178,1.09471 -1.852683,0.784033 -0.01563,-0.880578 -0.0091,-1.9136457 -0.0051,-2.2944448 0.0026,-0.3219562 1.624793,-1.0752337 2.149767,-1.3113877 z m 0.619879,0.1108626 c 0.497546,0.461351 0.934382,0.866104 1.284578,1.1912932 -0.624821,0.4528085 -1.288886,0.9209577 -1.900048,1.3264399 0.126352,-0.8046243 0.206366,-1.3911997 0.356947,-2.4468552 a 0.47065804,0.47065804 0 0 0 0.01038,3.764e-4 0.47065804,0.47065804 0 0 0 0.248248,-0.071308 z m 3.371901,0.00635 a 1.0481619,1.0481619 0 0 0 0.188762,0.1770052 C 26.539797,8.3395257 26.108934,8.8836574 25.734586,9.357078 25.515024,9.1483467 25.322124,8.9649169 25.159867,8.8113734 Z m 0.402125,0.2967211 a 1.0481619,1.0481619 0 0 0 0.338592,0.078986 C 27.317418,9.0349914 27.239558,9.3769824 27.115009,9.897284 A 0.56381065,0.56381065 0 0 0 26.998152,9.8855487 0.56381065,0.56381065 0 0 0 26.538759,10.12278 C 26.301835,9.8970839 26.089958,9.6951679 25.906383,9.5205292 26.293708,9.0325717 26.704777,8.5178275 27.247146,7.8367755 Z m -2.257362,1.1035273 c 0.229167,0.2131423 0.439339,0.4087807 0.618419,0.576915 -2.158328,2.7305187 -2.461308,3.1374787 -3.193809,4.0072227 a 0.56381065,0.56381065 0 0 0 -0.132189,-0.04956 c 0.226782,-1.312639 0.376384,-2.194327 0.48437,-2.856684 z m -9.874457,0.2280218 c 1.044178,0.5446163 3.842216,1.5700769 3.846011,2.0076519 0.0052,0.559338 0.0091,1.179746 0.01388,1.868092 l 0.01038,1.637476 -2.109382,-1.014643 a 0.56381065,0.56381065 0 0 0 0.0065,-0.0812 A 0.56381065,0.56381065 0 0 0 16.33489,13.02158 C 15.778402,11.478312 15.59086,10.94901 15.006256,9.2754921 A 0.72730599,0.72730599 0 0 0 15.11491,9.1678774 Z m -0.38082,0.2423747 c 0.298142,0.7693082 0.491386,1.3493942 1.279442,3.7013082 a 0.56381065,0.56381065 0 0 0 -0.258534,0.47373 0.56381065,0.56381065 0 0 0 0.400639,0.539462 c -0.238572,1.579523 -0.32756,2.15943 -0.699935,4.416304 -0.3601,-0.469373 -0.828202,-1.080873 -1.410892,-1.842382 a 1.0481619,1.0481619 0 0 0 0.428917,-0.844618 1.0481619,1.0481619 0 0 0 -0.793575,-1.016864 c 0.345732,-2.094005 0.489167,-2.943268 0.913299,-5.4052675 a 0.72730599,0.72730599 0 0 0 0.140639,-0.021759 z m 2.027476,4.5242722 c 0.61559,0.308302 2.267311,1.221546 2.24452,2.162256 0.02316,1.262193 0.02906,2.310427 0.01329,3.497491 l -0.643763,1.622084 c -0.09981,0.268294 -0.181447,0.490339 -0.275409,0.744018 -0.453705,-0.584198 -0.86338,-1.111682 -1.168169,-1.504908 0.251258,-0.34957 0.492987,-0.692799 0.860058,-1.210031 a 0.37964334,0.37964334 0 0 0 0.164882,0.03749 0.37964334,0.37964334 0 0 0 0.379348,-0.379715 0.37964334,0.37964334 0 0 0 -0.379348,-0.379718 0.37964334,0.37964334 0 0 0 -0.01531,7.75e-4 c -0.751422,-2.69368 -0.842731,-2.965614 -1.305141,-4.47324 a 0.56381065,0.56381065 0 0 0 0.125178,-0.11646 z m -0.285697,0.1917 c 0.737786,2.471715 1.055366,3.528817 1.304768,4.440911 a 0.37964334,0.37964334 0 0 0 -0.203446,0.336017 0.37964334,0.37964334 0 0 0 0.08119,0.234655 c -0.322184,0.446784 -0.59631,0.826608 -0.842411,1.167797 -0.424339,-0.547752 -0.772957,-0.999584 -1.17625,-1.524738 0.190766,-1.182709 0.372051,-2.335849 0.729692,-4.63445 a 0.56381065,0.56381065 0 0 0 0.106441,-0.02017 z m -0.900821,5.055662 c 0.262764,0.347614 0.653409,0.867606 1.04735,1.391798 -0.691058,0.957486 -1.101413,1.522279 -1.466726,2.007663 a 0.56381065,0.56381065 0 0 0 -0.121533,-0.09252 c 0.236276,-1.440547 0.40636,-2.476984 0.540923,-3.306894 z" />
</svg>
