<?xml version="1.0" encoding="UTF-8" standalone="no"?>
<svg
   width="96"
   height="96"
   viewBox="0 0 96 96"
   fill="none"
   version="1.1"
   id="svg6897"
   sodipodi:docname="icn-comp-96x96.svg"
   inkscape:version="1.2.2 (732a01da63, 2022-12-09, custom)"
   xmlns:inkscape="http://www.inkscape.org/namespaces/inkscape"
   xmlns:sodipodi="http://sodipodi.sourceforge.net/DTD/sodipodi-0.dtd"
   xmlns:xlink="http://www.w3.org/1999/xlink"
   xmlns="http://www.w3.org/2000/svg"
   xmlns:svg="http://www.w3.org/2000/svg">
  <sodipodi:namedview
     id="namedview6899"
     pagecolor="#ffffff"
     bordercolor="#000000"
     borderopacity="0.25"
     inkscape:showpageshadow="2"
     inkscape:pageopacity="0.0"
     inkscape:pagecheckerboard="0"
     inkscape:deskcolor="#d1d1d1"
     showgrid="false"
     inkscape:zoom="4.9166666"
     inkscape:cx="70.576272"
     inkscape:cy="76.983052"
     inkscape:window-width="1846"
     inkscape:window-height="1016"
     inkscape:window-x="0"
     inkscape:window-y="0"
     inkscape:window-maximized="1"
     inkscape:current-layer="svg6897" />
  <g
     filter="url(#filter0_i)"
     id="g6861">
    <path
       d="M48.0372 95.2513C74.1335 95.2513 95.2887 74.0961 95.2887 47.9999C95.2887 21.9036 74.1335 0.748413 48.0372 0.748413C21.941 0.748413 0.785767 21.9036 0.785767 47.9999C0.785767 74.0961 21.941 95.2513 48.0372 95.2513Z"
       fill="#00D395"
       id="path6859" />
  </g>
  <path
     d="M48.0375 91.7292C72.1886 91.7292 91.7669 72.1509 91.7669 47.9998C91.7669 23.8487 72.1886 4.27039 48.0375 4.27039C23.8864 4.27039 4.30804 23.8487 4.30804 47.9998C4.30804 72.1509 23.8864 91.7292 48.0375 91.7292Z"
     fill="url(#paint0_linear)"
     id="path6863" />
  <path
     fill-rule="evenodd"
     clip-rule="evenodd"
     d="M28.1019 63.8552C26.6886 62.9908 25.8242 61.4513 25.8242 59.7982V50.5674C25.8242 50.214 25.9188 49.8733 26.0955 49.5705C26.6444 48.624 27.8622 48.3022 28.8086 48.8575L49.6431 61.0033C50.8608 61.7163 51.6117 63.0161 51.6117 64.4294V73.9947C51.6117 74.43 51.4918 74.8654 51.2646 75.2377C50.5769 76.3608 49.1131 76.7141 47.9899 76.0264L28.1019 63.8552ZM59.158 46.3273C60.3758 47.0403 61.1266 48.3401 61.1266 49.7534V69.1616C61.1266 69.7357 60.8174 70.2657 60.319 70.5434L55.7571 73.1113C55.7003 73.1429 55.6372 73.1681 55.5741 73.1871V62.4104C55.5741 61.016 54.8422 59.7225 53.6434 59.0032L35.3454 48.0562V35.8914C35.3454 35.538 35.4401 35.1973 35.6167 34.8945C36.1657 33.948 37.3834 33.6262 38.3299 34.1815L59.158 46.3273ZM68.2754 31.9921C69.4995 32.6987 70.2504 34.0111 70.2504 35.4245V63.7732C70.2504 64.3537 69.9286 64.89 69.4175 65.1676L65.0954 67.5022V47.7659C65.0954 46.3715 64.3635 45.0844 63.1709 44.3651L44.4692 33.1467V21.6066C44.4692 21.2532 44.5638 20.9125 44.7342 20.6097C45.2831 19.6632 46.5009 19.3415 47.4473 19.8904L68.2754 31.9921Z"
     fill="#F9FAFB"
     id="path6865" />
  <path
     d="M48 96C74.5097 96 96 74.5097 96 48C96 21.4903 74.5097 0 48 0C21.4903 0 0 21.4903 0 48C0 74.5097 21.4903 96 48 96Z"
     fill="#070A0E"
     id="path6867"
     style="fill:#0b0b28" />
  <path
     d="M48.0002 92.4224C72.5339 92.4224 92.4224 72.5339 92.4224 48.0002C92.4224 23.4665 72.5339 3.578 48.0002 3.578C23.4665 3.578 3.578 23.4665 3.578 48.0002C3.578 72.5339 23.4665 92.4224 48.0002 92.4224Z"
     fill="#070A0E"
     id="path6869"
     style="fill:#0b0b28" />
  <defs
     id="defs6895">
    <filter
       id="filter0_i"
       x="0.785767"
       y="0.628444"
       width="94.5029"
       height="94.6229"
       filterUnits="userSpaceOnUse"
       color-interpolation-filters="sRGB">
      <feFlood
         flood-opacity="0"
         result="BackgroundImageFix"
         id="feFlood6873" />
      <feBlend
         mode="normal"
         in="SourceGraphic"
         in2="BackgroundImageFix"
         result="shape"
         id="feBlend6875" />
      <feColorMatrix
         in="SourceAlpha"
         type="matrix"
         values="0 0 0 0 0 0 0 0 0 0 0 0 0 0 0 0 0 0 127 0"
         result="hardAlpha"
         id="feColorMatrix6877" />
      <feOffset
         dy="-0.359908"
         id="feOffset6879" />
      <feGaussianBlur
         stdDeviation="0.0599846"
         id="feGaussianBlur6881" />
      <feComposite
         in2="hardAlpha"
         operator="arithmetic"
         k2="-1"
         k3="1"
         id="feComposite6883" />
      <feColorMatrix
         type="matrix"
         values="0 0 0 0 0.0699479 0 0 0 0 0.9875 0 0 0 0 0.717887 0 0 0 1 0"
         id="feColorMatrix6885" />
      <feBlend
         mode="normal"
         in2="shape"
         result="effect1_innerShadow"
         id="feBlend6887" />
    </filter>
    <linearGradient
       id="paint0_linear"
       x1="48.0375"
       y1="4.27039"
       x2="48.0375"
       y2="91.7292"
       gradientUnits="userSpaceOnUse">
      <stop
         stop-color="#141E27"
         id="stop6890" />
      <stop
         offset="1"
         stop-color="#141E27"
         id="stop6892" />
    </linearGradient>
    <linearGradient
       inkscape:collect="always"
       xlink:href="#linearGradient6727"
       id="linearGradient43205"
       gradientUnits="userSpaceOnUse"
       gradientTransform="matrix(1.5630817,0,0,1.543448,120.99814,132.44497)"
       x1="-66.464592"
       y1="-47.879383"
       x2="-23.863529"
       y2="-91.985565" />
    <linearGradient
       inkscape:collect="always"
       id="linearGradient6727">
      <stop
         style="stop-color:#b87333;stop-opacity:1;"
         offset="0"
         id="stop6723" />
      <stop
         style="stop-color:#c18af3;stop-opacity:1;"
         offset="0.9283123"
         id="stop8191" />
    </linearGradient>
  </defs>
  <path
     id="path3410-7-4"
     style="fill:url(#linearGradient43205);fill-opacity:1;stroke-width:0.249935"
     d="m 36.22772,11.254628 c -0.990226,0.01052 -2.009266,0.328201 -2.969238,0.955524 -2.020899,1.320554 -2.644085,4.342847 -1.379663,6.691041 1.37089,2.545891 2.184295,5.368642 2.332787,8.095626 l 0.141343,2.594625 -0.85621,-0.55596 c -4.020898,-2.610908 -11.336105,-5.238981 -14.60888,-5.249783 -4.030415,-0.07284 -1.342869,3.499961 0.194639,5.36066 4.353142,5.715671 8.167839,11.662653 11.432034,17.822346 l 1.992707,3.759888 0.0031,-4.051019 0.0015,-4.051024 -1.663946,-2.778823 c -0.915251,-1.528244 -2.151361,-3.507531 -2.747152,-4.397925 -0.877025,-1.331354 -2.208223,-5.646059 1.733422,-4.208959 0.590183,0.291076 1.83057,1.078084 2.75604,1.74915 l 1.682539,1.220322 v 10.158206 10.158233 l 0.772208,1.826494 c 4.388106,10.380538 6.430896,22.519335 8.906996,31.754808 0.461068,1.719857 0.852781,1.828868 1.314199,2.125592 l -8.3e-4,-0.002 c 2.049231,1.10337 2.589475,1.341563 2.714002,0.969886 0.119905,0.382033 0.654006,0.148599 2.716455,-0.961924 l 8.34e-4,8.12e-4 c 0.461277,-0.296767 0.852202,-0.405782 1.313289,-2.125635 0.619041,-2.308872 1.211617,-4.79883 1.819861,-7.397736 0.608264,-2.598909 1.232445,-5.306844 1.916773,-8.050147 0.684373,-2.74331 1.428965,-5.521906 2.276228,-8.26393 0.847277,-2.74205 1.797093,-5.447056 2.894166,-8.042182 l 0.772181,-1.8265 V 44.376058 l -0.05232,-6.873712 3.893323,-2.901645 c -0.396391,2.549112 -0.660234,4.163174 -0.944246,5.7084 a 1.2401353,1.2245581 0 0 0 -0.997559,1.200411 1.2401353,1.2245581 0 0 0 1.23987,1.224295 1.2401353,1.2245581 0 0 0 1.239884,-1.224295 1.2401353,1.2245581 0 0 0 -0.210084,-0.681957 c 3.831502,-4.843977 5.517813,-6.964268 6.953037,-8.752058 0.566369,0.527766 1.034789,0.970811 1.471739,1.394211 a 1.2401353,1.2245581 0 0 0 -0.03302,0.277531 1.2401353,1.2245581 0 0 0 1.239883,1.225108 1.2401353,1.2245581 0 0 0 1.240697,-1.225108 1.2401353,1.2245581 0 0 0 -0.667194,-1.085516 c 0.594563,-2.437026 0.743471,-3.025589 1.071884,-4.421917 a 2.3054948,2.2765358 0 0 0 2.094478,-2.266766 2.3054948,2.2765358 0 0 0 -2.306113,-2.276347 2.3054948,2.2765358 0 0 0 -2.30531,2.276347 2.3054948,2.2765358 0 0 0 0.193776,0.909275 c -0.890798,0.669139 -2.256733,1.68532 -3.865879,2.842612 -0.936189,-0.871935 -1.681214,-1.554955 -2.87233,-2.648817 a 1.0352404,1.0222369 0 0 0 0.15115,-0.530394 1.0352404,1.0222369 0 0 0 -1.034713,-1.022529 1.0352404,1.0222369 0 0 0 -1.035536,1.022529 1.0352404,1.0222369 0 0 0 0.0077,0.123465 l -4.496725,1.54017 0.08495,-1.205989 c 0.148506,-2.727009 0.961845,-5.548962 2.332719,-8.094828 1.264428,-2.348189 0.641237,-5.370519 -1.379632,-6.691072 -2.194278,-1.433853 -4.697596,-1.244327 -6.458743,0.489742 -1.771167,1.743918 -2.023558,3.625849 -0.819831,6.114393 0.925015,1.912387 1.391748,3.115672 1.925653,4.966644 0.04166,0.143582 0.07905,0.308434 0.113096,0.509654 0.03405,0.201224 0.06448,0.439122 0.0921,0.729828 0.01981,0.221843 -5.483797,2.82156 -8.017655,4.208129 a 1.5997531,1.5796588 0 0 0 -1.420841,-0.853437 1.5997531,1.5796588 0 0 0 -1.59933,1.579267 1.5997531,1.5796588 0 0 0 1.007268,1.467565 c -0.400711,2.708678 -0.716091,4.43451 -2.067841,11.787687 a 2.3054948,2.2765358 0 0 0 -2.12611,2.269956 2.3054948,2.2765358 0 0 0 2.30531,2.276383 2.3054948,2.2765358 0 0 0 0.718915,-0.114739 c 1.33757,1.630448 2.079572,2.555553 3.601732,4.537555 -0.311698,1.86103 -0.747516,4.456668 -1.269088,7.559624 a 1.2401353,1.2245581 0 0 0 -0.122699,-0.006 1.2401353,1.2245581 0 0 0 -1.240694,1.224331 1.2401353,1.2245581 0 0 0 1.240694,1.225108 1.2401353,1.2245581 0 0 0 1.239883,-1.225108 1.2401353,1.2245581 0 0 0 -0.141343,-0.566314 c 1.625442,-2.140475 2.550571,-3.370585 3.256018,-4.329344 0.77653,1.020427 1.596378,2.098768 2.681713,3.525361 -0.814629,2.175258 -1.562869,4.182636 -2.197071,5.856785 -0.871436,2.300397 -1.594005,4.14289 -2.226967,5.569635 -0.632904,1.426728 -1.176178,2.437759 -1.688962,3.074729 -0.512798,0.637007 -0.995524,0.899887 -1.506458,0.831097 -0.0016,4.120773 -0.0015,6.076495 -0.0016,7.930522 -2.75e-4,-1.854529 -5.55e-4,-3.813221 -0.0031,-7.937697 -2.043708,0.275273 -3.628852,-4.75987 -8.541918,-17.792043 l -1.415949,-3.522963 0.09755,-14.228395 c 0.08215,-11.960514 0.160599,-14.445594 0.491907,-15.593847 0.53389,-1.850978 1.000648,-3.05507 1.92567,-4.967457 1.203671,-2.488519 0.951281,-4.369652 -0.819921,-6.113569 -0.990601,-0.975433 -2.216244,-1.462006 -3.489412,-1.446087 z m 20.678279,15.629734 c 0.501357,-0.03011 0.801009,0.14925 0.785121,0.647672 -0.01728,0.564955 0.102522,1.194581 0.105924,1.944515 0.01371,3.302438 0.35529,3.983563 -4.05246,2.544356 -2.228093,-0.727489 -3.384955,-1.302421 -4.09281,-1.608759 a 1.5997531,1.5796588 0 0 0 0.06696,-0.449858 1.5997531,1.5796588 0 0 0 0,-0.01956 c 2.024381,-0.793008 5.607064,-2.964175 7.187306,-3.058791 z m 9.467578,0.288718 a 1.0352404,1.0222369 0 0 0 0.26333,0.23544 c -0.364334,2.376818 -0.661993,4.319884 -0.904679,5.893472 -2.283093,1.457667 -4.062972,2.377632 -4.075074,1.702874 -0.03454,-1.912559 -0.01981,-4.156317 -0.01063,-4.983385 0.0061,-0.699269 3.573823,-2.33533 4.72854,-2.848241 z m 1.36346,0.240808 c 1.094375,1.00202 2.05523,1.881112 2.825496,2.58741 -1.374318,0.983468 -2.834971,2.000257 -4.179253,2.880925 0.277912,-1.747584 0.453906,-3.021586 0.785118,-5.314389 a 1.0352404,1.0222369 0 0 0 0.02286,8.23e-4 1.0352404,1.0222369 0 0 0 0.546051,-0.15487 z m 7.416708,0.01404 a 2.3054948,2.2765358 0 0 0 0.415189,0.38444 c -1.086682,1.352857 -2.0344,2.534659 -2.857787,3.562898 -0.482967,-0.453371 -0.90725,-0.851742 -1.26413,-1.185231 z m 0.884499,0.644457 a 2.3054948,2.2765358 0 0 0 0.744745,0.171526 c -0.590319,2.431799 -0.761567,3.174584 -1.035536,4.304648 a 1.2401353,1.2245581 0 0 0 -0.257029,-0.02558 1.2401353,1.2245581 0 0 0 -1.010464,0.515247 c -0.521127,-0.490194 -0.987168,-0.928748 -1.390956,-1.30805 0.851952,-1.059815 1.756112,-2.177808 2.949092,-3.656998 z m -4.965213,2.396787 c 0.50405,0.462952 0.966354,0.887842 1.36025,1.25301 -4.747365,5.930502 -5.413793,6.814391 -7.024975,8.70342 a 1.2401353,1.2245581 0 0 0 -0.290765,-0.107657 c 0.498818,-2.850964 0.82788,-4.765931 1.065411,-6.204525 z m -21.719448,0.495314 c 2.296728,1.182856 8.451176,3.410084 8.459529,4.360466 0.01063,1.214853 0.02031,2.562332 0.03049,4.05737 l 0.02286,3.55649 -4.639705,-2.203743 a 1.2401353,1.2245581 0 0 0 0.01422,-0.176343 1.2401353,1.2245581 0 0 0 -1.205169,-1.22433 c -1.224009,-3.351944 -1.636525,-4.50155 -2.922385,-8.136313 a 1.5997531,1.5796588 0 0 0 0.238995,-0.233732 z m -0.837635,0.52641 c 0.655773,1.670882 1.080814,2.930792 2.814201,8.038995 a 1.2401353,1.2245581 0 0 0 -0.568665,1.028911 1.2401353,1.2245581 0 0 0 0.881231,1.171664 c -0.524743,3.430613 -0.720486,4.690141 -1.539555,9.591902 -0.792047,-1.019438 -1.821679,-2.347571 -3.10333,-4.001517 a 2.3054948,2.2765358 0 0 0 0.943423,-1.834462 2.3054948,2.2765358 0 0 0 -1.745519,-2.208555 c 0.76047,-4.548036 1.075967,-6.392565 2.008864,-11.739861 a 1.5997531,1.5796588 0 0 0 0.30936,-0.04716 z m 4.459541,9.826409 c 1.354037,0.66961 4.98708,2.653117 4.93697,4.696267 0.05095,2.741407 0.06386,5.018092 0.02896,7.596312 l -1.416012,3.522996 c -0.219533,0.582723 -0.399083,1.064986 -0.605778,1.615958 -0.997945,-1.268834 -1.899042,-2.414496 -2.569453,-3.268555 0.552652,-0.759246 1.084356,-1.504715 1.891746,-2.628097 a 0.83504819,0.82455927 0 0 0 0.362656,0.08142 0.83504819,0.82455927 0 0 0 0.834404,-0.82472 0.83504819,0.82455927 0 0 0 -0.834404,-0.824726 0.83504819,0.82455927 0 0 0 -0.03354,0.002 C 53.918371,45.435693 53.717533,44.845068 52.70043,41.570609 a 1.2401353,1.2245581 0 0 0 0.275319,-0.252949 z m -0.628409,0.416346 c 1.622813,5.368391 2.32134,7.664345 2.869922,9.645352 a 0.83504819,0.82455927 0 0 0 -0.447503,0.729808 0.83504819,0.82455927 0 0 0 0.178584,0.509658 c -0.708667,0.970377 -1.311612,1.795338 -1.852929,2.536368 -0.933365,-1.189679 -1.700171,-2.171025 -2.587245,-3.311624 0.419609,-2.568759 0.818359,-5.073301 1.605,-10.065696 a 1.2401353,1.2245581 0 0 0 0.234115,-0.04365 z m -1.981403,10.980538 c 0.577958,0.754992 1.437216,1.884379 2.303709,3.022892 -1.520015,2.079598 -2.422628,3.306287 -3.226151,4.360512 a 1.2401353,1.2245581 0 0 0 -0.267343,-0.200974 c 0.51971,-3.128766 0.893833,-5.379844 1.189805,-7.182353 z" />
</svg>
