<?xml version="1.0" encoding="UTF-8" standalone="no"?>
<svg
   width="30"
   height="30"
   viewBox="0 0 30 30"
   fill="none"
   version="1.1"
   id="svg40030"
   sodipodi:docname="icn-edit.svg"
   inkscape:version="1.2.2 (732a01da63, 2022-12-09, custom)"
   xmlns:inkscape="http://www.inkscape.org/namespaces/inkscape"
   xmlns:sodipodi="http://sodipodi.sourceforge.net/DTD/sodipodi-0.dtd"
   xmlns="http://www.w3.org/2000/svg"
   xmlns:svg="http://www.w3.org/2000/svg">
  <sodipodi:namedview
     id="namedview40032"
     pagecolor="#ffffff"
     bordercolor="#000000"
     borderopacity="0.25"
     inkscape:showpageshadow="2"
     inkscape:pageopacity="0.0"
     inkscape:pagecheckerboard="0"
     inkscape:deskcolor="#d1d1d1"
     showgrid="false"
     inkscape:zoom="11.125147"
     inkscape:cx="0.26965937"
     inkscape:cy="13.977344"
     inkscape:window-width="1846"
     inkscape:window-height="1016"
     inkscape:window-x="0"
     inkscape:window-y="0"
     inkscape:window-maximized="1"
     inkscape:current-layer="svg40030" />
  <rect
     x="-20.1504"
     y="-16.0439"
     width="10"
     height="2"
     transform="scale(-1)"
     fill="#f9fafb"
     id="rect39996"
     clip-path="url(#clipPath40542)" />
  <g
     filter="url(#filter0_d)"
     id="g40002"
     clip-path="url(#clipPath40536)"
     style="stroke:#c9803c;stroke-opacity:1">
    <circle
       cx="15"
       cy="15"
       r="15"
       fill="#ffffff"
       id="circle39998"
       style="stroke:#c9803c;stroke-opacity:1" />
    <circle
       cx="15"
       cy="15"
       r="14.5"
       stroke="#00d395"
       id="circle40000"
       style="stroke:#c9803c;stroke-opacity:1" />
  </g>
  <path
     fill-rule="evenodd"
     clip-rule="evenodd"
     d="m 20.4648,15.9556 v 2.513 c 0,1.2756 -1.0511,2.3117 -2.3478,2.3117 h -7.0456 c -1.29548,0 -2.34777,-1.035 -2.34777,-2.3117 v -6.9372 c 0,-1.2756 1.05114,-2.31167 2.34777,-2.31167 h 7.2543 v 1.5e-4 l -0.0134,1.15592 h 0.0134 v -2e-4 c -0.0045,10e-5 -0.0089,2e-4 -0.0134,2e-4 h -6.853 c -0.8624,0 -1.56155,0.6876 -1.56155,1.5376 v 6.1732 c 0,0.8492 0.69835,1.5376 1.56155,1.5376 h 6.2698 c 0.8624,0 1.5616,-0.6876 1.5616,-1.5376 v -2.131 c 0.0043,-0.3156 0.2654,-0.5702 0.587,-0.5702 0.3216,0 0.5828,0.2546 0.587,0.5702 z m 0.5813,-4.9961 c -0.3057,-0.301 -0.8017,-0.3006 -1.1083,0.0013 l -5.5321,5.447 c -0.3065,0.3017 -0.3092,0.7882 -0.0014,1.0913 0.3057,0.301 0.8017,0.3006 1.1083,-0.0013 l 5.5321,-5.447 c 0.3065,-0.3018 0.3092,-0.7882 0.0014,-1.0913 z"
     fill="#00d395"
     id="path40004"
     clip-path="url(#clipPath40530)"
     style="fill:#c9803c;fill-opacity:1" />
  <path
     d="m 18.2616,10.3758 c 0.3193,0 0.578,-0.2588 0.578,-0.57804 0,-0.31923 -0.2587,-0.57803 -0.578,-0.57803 -0.3192,0 -0.578,0.2588 -0.578,0.57803 0,0.31924 0.2588,0.57804 0.578,0.57804 z"
     fill="#00d395"
     id="path40006"
     clip-path="url(#clipPath40524)"
     style="fill:#c9803c;fill-opacity:1" />
  <defs
     id="defs40028">
    <filter
       id="filter0_d"
       x="-5"
       y="-3"
       width="40"
       height="40"
       filterUnits="userSpaceOnUse"
       color-interpolation-filters="sRGB">
      <feFlood
         flood-opacity="0"
         result="BackgroundImageFix"
         id="feFlood40010" />
      <feColorMatrix
         in="SourceAlpha"
         type="matrix"
         values="0 0 0 0 0 0 0 0 0 0 0 0 0 0 0 0 0 0 127 0"
         id="feColorMatrix40012" />
      <feOffset
         dy="2"
         id="feOffset40014" />
      <feGaussianBlur
         stdDeviation="2.5"
         id="feGaussianBlur40016" />
      <feColorMatrix
         type="matrix"
         values="0 0 0 0 0 0 0 0 0 0 0 0 0 0 0 0 0 0 0.04 0"
         id="feColorMatrix40018" />
      <feBlend
         mode="normal"
         in2="BackgroundImageFix"
         result="effect1_dropShadow"
         id="feBlend40020" />
      <feBlend
         mode="normal"
         in="SourceGraphic"
         in2="effect1_dropShadow"
         result="shape"
         id="feBlend40022" />
    </filter>
    <clipPath
       clipPathUnits="userSpaceOnUse"
       id="clipPath40524">
      <g
         id="g40528">
        <rect
           width="30"
           height="30"
           fill="#ffffff"
           id="rect40526"
           x="0"
           y="0" />
      </g>
    </clipPath>
    <clipPath
       clipPathUnits="userSpaceOnUse"
       id="clipPath40530">
      <g
         id="g40534">
        <rect
           width="30"
           height="30"
           fill="#ffffff"
           id="rect40532"
           x="0"
           y="0" />
      </g>
    </clipPath>
    <clipPath
       clipPathUnits="userSpaceOnUse"
       id="clipPath40536">
      <g
         id="g40540">
        <rect
           width="30"
           height="30"
           fill="#ffffff"
           id="rect40538"
           x="0"
           y="0" />
      </g>
    </clipPath>
    <clipPath
       clipPathUnits="userSpaceOnUse"
       id="clipPath40542">
      <g
         id="g40546"
         transform="scale(-1)">
        <rect
           width="30"
           height="30"
           fill="#ffffff"
           id="rect40544"
           x="0"
           y="0" />
      </g>
    </clipPath>
  </defs>
</svg>
