<?xml version="1.0" encoding="UTF-8" standalone="no"?>
<svg
   width="38"
   height="39"
   viewBox="0 0 38 39"
   fill="none"
   version="1.1"
   id="svg25465"
   sodipodi:docname="icn-voting-delegate.svg"
   inkscape:version="1.2.2 (732a01da63, 2022-12-09, custom)"
   xmlns:inkscape="http://www.inkscape.org/namespaces/inkscape"
   xmlns:sodipodi="http://sodipodi.sourceforge.net/DTD/sodipodi-0.dtd"
   xmlns="http://www.w3.org/2000/svg"
   xmlns:svg="http://www.w3.org/2000/svg">
  <defs
     id="defs25469" />
  <sodipodi:namedview
     id="namedview25467"
     pagecolor="#ffffff"
     bordercolor="#000000"
     borderopacity="0.25"
     inkscape:showpageshadow="2"
     inkscape:pageopacity="0.0"
     inkscape:pagecheckerboard="0"
     inkscape:deskcolor="#d1d1d1"
     showgrid="false"
     inkscape:zoom="5.6568543"
     inkscape:cx="24.571961"
     inkscape:cy="23.776465"
     inkscape:window-width="1846"
     inkscape:window-height="1016"
     inkscape:window-x="0"
     inkscape:window-y="0"
     inkscape:window-maximized="1"
     inkscape:current-layer="svg25465" />
  <path
     d="M19.1089 0.889648C8.8683 0.889648 0.545898 9.21205 0.545898 19.4526C0.545898 29.6932 8.8683 38.0156 19.1089 38.0156C29.3495 38.0156 37.6719 29.6932 37.6719 19.4526C37.6719 9.21205 29.3495 0.889648 19.1089 0.889648ZM19.1089 36.6853C9.60051 36.6853 1.87625 28.9507 1.87625 19.4526C1.87625 9.95457 9.60051 2.22 19.1089 2.22C28.6173 2.22 36.3415 9.94426 36.3415 19.4526C36.3415 28.961 28.6173 36.6853 19.1089 36.6853Z"
     fill="#00D395"
     id="path25459"
     style="fill:#c9803c;fill-opacity:1" />
  <path
     d="M20.2493 11.3861L18.2187 13.4167L22.8154 18.0134H10.498V20.8919H22.8154L18.2187 25.4885L20.2493 27.5191L27.3005 20.4679C27.8583 19.91 27.8583 18.9952 27.3005 18.4373L20.2493 11.3861Z"
     fill="#00D395"
     id="path25461"
     style="fill:#c9803c;fill-opacity:1" />
  <path
     fill-rule="evenodd"
     clip-rule="evenodd"
     d="M18.2187 25.4885L20.2493 27.5191L27.3005 20.4679C27.8583 19.91 27.8583 18.9952 27.3005 18.4373L20.2493 11.3861L18.2187 13.4167L22.8154 18.0134H10.498V20.8919H22.8154L18.2187 25.4885ZM11.298 20.0919H24.7467L19.3501 25.4885L20.2493 26.3877L26.7348 19.9022C26.9802 19.6568 26.9802 19.2484 26.7348 19.003L20.2493 12.5175L19.3501 13.4167L24.7467 18.8134H11.298V20.0919Z"
     fill="white"
     id="path25463" />
</svg>
